# xmcd
#
# Track frame offsets: 
#        150
#        16197
#        29600
#        39762
#        52482
#        66027
#        77537
#        87980
#        103012
#        114747
#        122952
#        134715
#        145927
#        157515
#
# Disc length: 2275 seconds
#
# Revision: 2
# Processed by: cddbd v1.5.1PL0 Copyright (c) Steve Scherf et al.
# Submitted via: ExactAudioCopy v0.95a5
#
DISCID=bc08e10e
DTITLE=Gene Pitney - Gene Pitney Gold
DYEAR=1900
DGENRE=
TTITLE0=Something's Gotten Hold Of My Heart
TTITLE1=Twenty Four Hours From Tulsa
TTITLE2=I'm Gonna Be Strong
TTITLE3=Only Love Can Break A Heart
TTITLE4=The Man Who Shot Liberty Valance
TTITLE5=It Hurts To Be In Love
TTITLE6=Mecca
TTITLE7=Looking Through The Eyes Of Love
TTITLE8=Just One Smile
TTITLE9=(I Wanna) Love My Life Away
TTITLE10=Back Stage
TTITLE11=I Must Be Seeing Things
TTITLE12=Princess In Rags
TTITLE13=Town Without Pity
EXTD=San Juan Music Group
EXTT0=
EXTT1=
EXTT2=
EXTT3=
EXTT4=
EXTT5=
EXTT6=
EXTT7=
EXTT8=
EXTT9=
EXTT10=
EXTT11=
EXTT12=
EXTT13=
PLAYORDER=
